HIERARCHY
ROOT newVegas:Hips
{
	OFFSET 0.000000 96.479958 0.000000
	CHANNELS 6 Xposition Yposition Zposition Xrotation Yrotation Zrotation
	JOINT newVegas:Pelvis
	{
		OFFSET 0.000000 0.000000 0.000000
		CHANNELS 3 Xrotation Yrotation Zrotation
		JOINT newVegas:LeftUpLeg
		{
			OFFSET 18.735201 -5.666702 -4.541200
			CHANNELS 3 Xrotation Yrotation Zrotation
			JOINT newVegas:LeftLeg
			{
				OFFSET -0.021200 -31.938179 0.493100
				CHANNELS 3 Xrotation Yrotation Zrotation
				JOINT newVegas:LeftFoot
				{
					OFFSET 0.021200 -31.938179 -4.336299
					CHANNELS 3 Xrotation Yrotation Zrotation
					JOINT newVegas:LeftToeBase
					{
						OFFSET 0.943001 -26.722000 15.023500
						CHANNELS 3 Xrotation Yrotation Zrotation
						End Site
						{
							OFFSET 0.000000 30.670183 0.000000
						}
					}
				}
				JOINT newVegas:Left_PantLeg
				{
					OFFSET 0.663870 -9.044666 -1.108900
					CHANNELS 3 Xrotation Yrotation Zrotation
					End Site
					{
						OFFSET 1.415995 20.635357 0.000000
					}
				}
			}
		}
		JOINT newVegas:RightUpLeg
		{
			OFFSET -18.735201 -5.666702 -4.541200
			CHANNELS 3 Xrotation Yrotation Zrotation
			JOINT newVegas:RightLeg
			{
				OFFSET 0.018946 -31.938133 0.493100
				CHANNELS 3 Xrotation Yrotation Zrotation
				JOINT newVegas:RightFoot
				{
					OFFSET -0.018946 -31.938126 -4.336299
					CHANNELS 3 Xrotation Yrotation Zrotation
					JOINT newVegas:RightToeBase
					{
						OFFSET -0.943001 -26.722004 15.023500
						CHANNELS 3 Xrotation Yrotation Zrotation
						End Site
						{
							OFFSET 0.000000 30.670187 0.000000
						}
					}
				}
				JOINT newVegas:Right_PantLeg
				{
					OFFSET -0.661674 -9.044716 -1.108900
					CHANNELS 3 Xrotation Yrotation Zrotation
					End Site
					{
						OFFSET -1.415958 20.635269 0.000000
					}
				}
			}
		}
	}
	JOINT newVegas:Spine
	{
		OFFSET 0.000000 10.199997 -0.299500
		CHANNELS 3 Xrotation Yrotation Zrotation
		JOINT newVegas:Spine1
		{
			OFFSET 0.000000 11.900002 -1.516600
			CHANNELS 3 Xrotation Yrotation Zrotation
			JOINT newVegas:Spine2
			{
				OFFSET 0.000000 13.600006 -2.842500
				CHANNELS 3 Xrotation Yrotation Zrotation
				JOINT newVegas:Neck
				{
					OFFSET 0.000000 9.624100 -2.890100
					CHANNELS 3 Xrotation Yrotation Zrotation
					JOINT newVegas:Head
					{
						OFFSET 0.000000 14.068802 -1.351900
						CHANNELS 3 Xrotation Yrotation Zrotation
						JOINT newVegas:Hair_Back
						{
							OFFSET 0.000000 3.231903 -17.524799
							CHANNELS 3 Xrotation Yrotation Zrotation
							End Site
							{
								OFFSET 0.000000 19.849884 0.000000
							}
						}
						JOINT newVegas:Hair_Front
						{
							OFFSET 0.000000 31.260406 4.573800
							CHANNELS 3 Xrotation Yrotation Zrotation
							JOINT newVegas:Hair_Front1
							{
								OFFSET 0.000000 2.284103 11.993300
								CHANNELS 3 Xrotation Yrotation Zrotation
								JOINT newVegas:Hair_Front2
								{
									OFFSET 0.000000 2.284103 11.993300
									CHANNELS 3 Xrotation Yrotation Zrotation
									End Site
									{
										OFFSET 0.000000 12.208862 0.000000
									}
								}
							}
						}
						JOINT newVegas:Jowel
						{
							OFFSET 0.000000 -7.458206 6.864100
							CHANNELS 3 Xrotation Yrotation Zrotation
							End Site
							{
								OFFSET 0.000000 19.849884 0.000000
							}
						}
					}
				}
				JOINT newVegas:LeftShoulder
				{
					OFFSET 15.263000 10.923401 -0.547700
					CHANNELS 3 Xrotation Yrotation Zrotation
					JOINT newVegas:LeftArm
					{
						OFFSET 25.438599 -2.830597 -13.032500
						CHANNELS 3 Xrotation Yrotation Zrotation
						JOINT newVegas:LeftForeArm
						{
							OFFSET 29.960503 0.000000 0.000000
							CHANNELS 3 Xrotation Yrotation Zrotation
							JOINT newVegas:LeftHand
							{
								OFFSET 27.849251 0.000000 0.000000
								CHANNELS 3 Xrotation Yrotation Zrotation
								JOINT newVegas:LeftHandThumb1
								{
									OFFSET 4.487587 -3.305161 6.305391
									CHANNELS 3 Xrotation Yrotation Zrotation
									JOINT newVegas:LeftHandThumb2
									{
										OFFSET 5.480453 -3.164139 3.164143
										CHANNELS 3 Xrotation Yrotation Zrotation
										JOINT newVegas:LeftHandThumb3
										{
											OFFSET 5.159721 -2.978973 2.978967
											CHANNELS 3 Xrotation Yrotation Zrotation
											End Site
											{
												OFFSET 2.494507 5.926697 1.738678
											}
										}
									}
								}
								JOINT newVegas:LeftHandIndex1
								{
									OFFSET 18.578728 -0.527832 5.208049
									CHANNELS 3 Xrotation Yrotation Zrotation
									JOINT newVegas:LeftHandIndex2
									{
										OFFSET 3.192009 0.000000 0.000000
										CHANNELS 3 Xrotation Yrotation Zrotation
										JOINT newVegas:LeftHandIndex3
										{
											OFFSET 3.835129 0.000000 0.000000
											CHANNELS 3 Xrotation Yrotation Zrotation
											End Site
											{
												OFFSET -0.034599 3.816971 0.371180
											}
										}
									}
								}
								JOINT newVegas:LeftHandMiddle1
								{
									OFFSET 18.476105 0.000000 0.000000
									CHANNELS 3 Xrotation Yrotation Zrotation
									JOINT newVegas:LeftHandMiddle2
									{
										OFFSET 3.324875 0.000000 0.000000
										CHANNELS 3 Xrotation Yrotation Zrotation
										JOINT newVegas:LeftHandMiddle3
										{
											OFFSET 4.596550 0.000000 0.000000
											CHANNELS 3 Xrotation Yrotation Zrotation
											End Site
											{
												OFFSET 0.057701 4.578827 0.399218
											}
										}
									}
								}
								JOINT newVegas:LeftHandRing1
								{
									OFFSET 17.732719 0.121887 -4.201567
									CHANNELS 3 Xrotation Yrotation Zrotation
									JOINT newVegas:LeftHandRing2
									{
										OFFSET 2.733170 0.000000 0.000000
										CHANNELS 3 Xrotation Yrotation Zrotation
										JOINT newVegas:LeftHandRing3
										{
											OFFSET 3.178268 0.000000 0.000000
											CHANNELS 3 Xrotation Yrotation Zrotation
											End Site
											{
												OFFSET 0.119102 3.170624 0.185394
											}
										}
									}
								}
								JOINT newVegas:LeftHandPinky1
								{
									OFFSET 15.989624 -0.606689 -7.535461
									CHANNELS 3 Xrotation Yrotation Zrotation
									JOINT newVegas:LeftHandPinky2
									{
										OFFSET 2.538986 0.000000 0.000000
										CHANNELS 3 Xrotation Yrotation Zrotation
										JOINT newVegas:LeftHandPinky3
										{
											OFFSET 2.593102 0.000000 0.000000
											CHANNELS 3 Xrotation Yrotation Zrotation
											End Site
											{
												OFFSET -0.150902 2.584198 0.152708
											}
										}
									}
								}
							}
							JOINT newVegas:Left_Sleeve
							{
								OFFSET 0.267448 -0.649796 0.577675
								CHANNELS 3 Xrotation Yrotation Zrotation
								End Site
								{
									OFFSET 0.000000 15.991241 0.000000
								}
							}
							JOINT newVegas:Left_CapeC
							{
								OFFSET 15.715958 -8.608795 -6.935905
								CHANNELS 3 Xrotation Yrotation Zrotation
								JOINT newVegas:Left_CapeC1
								{
									OFFSET 0.000000 -8.688499 0.000000
									CHANNELS 3 Xrotation Yrotation Zrotation
									End Site
									{
										OFFSET 0.000000 8.688499 0.000000
									}
								}
							}
						}
						JOINT newVegas:Left_CapeB
						{
							OFFSET 26.118385 -8.608795 -7.079235
							CHANNELS 3 Xrotation Yrotation Zrotation
							JOINT newVegas:Left_CapeB1
							{
								OFFSET 0.000000 -8.688499 0.000000
								CHANNELS 3 Xrotation Yrotation Zrotation
								End Site
								{
									OFFSET 0.000000 8.688499 0.000000
								}
							}
						}
						JOINT newVegas:Left_CapeA
						{
							OFFSET 5.115639 -8.608795 -10.395809
							CHANNELS 3 Xrotation Yrotation Zrotation
							JOINT newVegas:Left_CapeA1
							{
								OFFSET 0.000000 -8.688499 0.000000
								CHANNELS 3 Xrotation Yrotation Zrotation
								End Site
								{
									OFFSET 0.000000 8.688499 0.000000
								}
							}
						}
					}
				}
				JOINT newVegas:RightShoulder
				{
					OFFSET -15.263000 10.923401 -0.547700
					CHANNELS 3 Xrotation Yrotation Zrotation
					JOINT newVegas:RightArm
					{
						OFFSET -25.438599 -2.830597 -13.032500
						CHANNELS 3 Xrotation Yrotation Zrotation
						JOINT newVegas:RightForeArm
						{
							OFFSET -29.960503 0.000000 0.000000
							CHANNELS 3 Xrotation Yrotation Zrotation
							JOINT newVegas:RightHand
							{
								OFFSET -27.849251 0.000000 0.000000
								CHANNELS 3 Xrotation Yrotation Zrotation
								JOINT newVegas:RightHandThumb1
								{
									OFFSET -4.487587 -3.305161 6.305391
									CHANNELS 3 Xrotation Yrotation Zrotation
									JOINT newVegas:RightHandThumb2
									{
										OFFSET -5.480453 -3.164139 3.164143
										CHANNELS 3 Xrotation Yrotation Zrotation
										JOINT newVegas:RightHandThumb3
										{
											OFFSET -5.159721 -2.978973 2.978967
											CHANNELS 3 Xrotation Yrotation Zrotation
											End Site
											{
												OFFSET -2.494507 5.926697 1.738678
											}
										}
									}
								}
								JOINT newVegas:RightHandIndex1
								{
									OFFSET -18.578728 -0.527832 5.208049
									CHANNELS 3 Xrotation Yrotation Zrotation
									JOINT newVegas:RightHandIndex2
									{
										OFFSET -3.192009 0.000000 0.000000
										CHANNELS 3 Xrotation Yrotation Zrotation
										JOINT newVegas:RightHandIndex3
										{
											OFFSET -3.835129 0.000000 0.000000
											CHANNELS 3 Xrotation Yrotation Zrotation
											End Site
											{
												OFFSET 0.034599 3.816971 0.371180
											}
										}
									}
								}
								JOINT newVegas:RightHandMiddle1
								{
									OFFSET -18.476105 0.000000 0.000000
									CHANNELS 3 Xrotation Yrotation Zrotation
									JOINT newVegas:RightHandMiddle2
									{
										OFFSET -3.324875 0.000000 0.000000
										CHANNELS 3 Xrotation Yrotation Zrotation
										JOINT newVegas:RightHandMiddle3
										{
											OFFSET -4.596550 0.000000 0.000000
											CHANNELS 3 Xrotation Yrotation Zrotation
											End Site
											{
												OFFSET -0.057701 4.578827 0.399218
											}
										}
									}
								}
								JOINT newVegas:RightHandRing1
								{
									OFFSET -17.732719 0.121887 -4.201567
									CHANNELS 3 Xrotation Yrotation Zrotation
									JOINT newVegas:RightHandRing2
									{
										OFFSET -2.733170 0.000000 0.000000
										CHANNELS 3 Xrotation Yrotation Zrotation
										JOINT newVegas:RightHandRing3
										{
											OFFSET -3.178268 0.000000 0.000000
											CHANNELS 3 Xrotation Yrotation Zrotation
											End Site
											{
												OFFSET -0.119102 3.170624 0.185394
											}
										}
									}
								}
								JOINT newVegas:RightHandPinky1
								{
									OFFSET -15.989624 -0.606689 -7.535461
									CHANNELS 3 Xrotation Yrotation Zrotation
									JOINT newVegas:RightHandPinky2
									{
										OFFSET -2.538986 0.000000 0.000000
										CHANNELS 3 Xrotation Yrotation Zrotation
										JOINT newVegas:RightHandPinky3
										{
											OFFSET -2.593102 0.000000 0.000000
											CHANNELS 3 Xrotation Yrotation Zrotation
											End Site
											{
												OFFSET 0.150902 2.584198 0.152708
											}
										}
									}
								}
							}
							JOINT newVegas:Right_CapeC
							{
								OFFSET -15.715958 -8.608795 -6.935905
								CHANNELS 3 Xrotation Yrotation Zrotation
								JOINT newVegas:Right_CapeC1
								{
									OFFSET 0.000000 -8.688499 0.000000
									CHANNELS 3 Xrotation Yrotation Zrotation
									End Site
									{
										OFFSET 0.000000 8.688499 0.000000
									}
								}
							}
							JOINT newVegas:Right_Sleeve
							{
								OFFSET -0.267448 -0.649994 0.577675
								CHANNELS 3 Xrotation Yrotation Zrotation
								End Site
								{
									OFFSET 0.000000 15.991302 0.000000
								}
							}
						}
						JOINT newVegas:Right_CapeA
						{
							OFFSET -5.115540 -8.608795 -10.395824
							CHANNELS 3 Xrotation Yrotation Zrotation
							JOINT newVegas:Right_CapeA1
							{
								OFFSET 0.000000 -8.688499 0.000000
								CHANNELS 3 Xrotation Yrotation Zrotation
								End Site
								{
									OFFSET 0.000000 8.688499 0.000000
								}
							}
						}
						JOINT newVegas:Right_CapeB
						{
							OFFSET -26.118187 -8.608795 -7.079266
							CHANNELS 3 Xrotation Yrotation Zrotation
							JOINT newVegas:Right_CapeB1
							{
								OFFSET 0.000000 -8.688499 0.000000
								CHANNELS 3 Xrotation Yrotation Zrotation
								End Site
								{
									OFFSET 0.000000 8.688499 0.000000
								}
							}
						}
					}
				}
				JOINT newVegas:Left_Collar
				{
					OFFSET 18.625099 8.655502 8.828100
					CHANNELS 3 Xrotation Yrotation Zrotation
					JOINT newVegas:Left_Collar1
					{
						OFFSET 14.783401 10.540405 -1.259500
						CHANNELS 3 Xrotation Yrotation Zrotation
						End Site
						{
							OFFSET 0.000000 18.199875 0.000000
						}
					}
				}
				JOINT newVegas:Collar_Back
				{
					OFFSET 0.000000 15.630707 -20.132601
					CHANNELS 3 Xrotation Yrotation Zrotation
					End Site
					{
						OFFSET 0.000000 22.523010 0.000000
					}
				}
				JOINT newVegas:Left_Peck
				{
					OFFSET 17.239599 -5.132599 25.482599
					CHANNELS 3 Xrotation Yrotation Zrotation
					End Site
					{
						OFFSET 0.000000 22.523010 0.000000
					}
				}
				JOINT newVegas:Right_Peck
				{
					OFFSET -17.239599 -5.132202 25.482599
					CHANNELS 3 Xrotation Yrotation Zrotation
					End Site
					{
						OFFSET 0.000000 22.523010 0.000000
					}
				}
				JOINT newVegas:Right_Collar
				{
					OFFSET -18.625099 8.655792 8.828100
					CHANNELS 3 Xrotation Yrotation Zrotation
					JOINT newVegas:Right_Collar1
					{
						OFFSET -14.783401 10.539993 -1.259500
						CHANNELS 3 Xrotation Yrotation Zrotation
						End Site
						{
							OFFSET 0.000000 18.199631 0.000000
						}
					}
				}
			}
		}
		JOINT newVegas:Belly
		{
			OFFSET 0.000000 -6.540398 9.014299
			CHANNELS 3 Xrotation Yrotation Zrotation
			End Site
			{
				OFFSET 0.000000 11.566666 0.000000
			}
		}
	}
	JOINT newVegas:ElvisFacialAnim_Joint
	{
		OFFSET 1.000000 -95.330101 -8.825800
		CHANNELS 3 Xrotation Yrotation Zrotation
		End Site
		{
			OFFSET 0.000000 35.315800 0.000000
		}
	}
}
MOTION
Frames: 4
Frame Time: 0.033333
-2.906762 87.822327 2.711466 -6.344957 -45.459000 -4.172221 0.000000 0.000002 0.000000 -34.395409 2.851523 16.365683 38.637048 -14.745016 -0.123975 -1.808208 0.980037 -11.112141 0.000000 0.000002 0.000000 -0.000000 -0.000002 -0.000001 1.083002 -13.659875 -18.454013 33.743819 -7.730699 -0.254138 -25.562058 -6.501746 21.394425 0.000000 -0.000002 -0.000000 0.000001 0.000001 -0.000000 5.844026 4.525834 -1.455217 11.823159 9.037544 -3.084140 11.823159 9.037545 -3.084138 -0.860974 -0.253300 0.048898 -0.860975 -0.253311 0.048899 0.000001 -0.000002 0.000000 -0.860969 -0.253299 0.048899 -0.860973 -0.253309 0.048903 0.000000 -0.000000 -0.000000 0.000001 -0.000002 -0.000000 1.392492 -0.696018 -7.877856 -14.260099 2.394323 -63.277106 9.865047 -47.524907 5.927927 16.172923 0.915193 18.795434 9.163654 4.814069 -5.499031 -0.335154 0.032536 0.783745 0.000001 -0.000003 0.000002 -0.901816 -6.980954 -3.808356 0.030166 0.796600 -16.417905 -0.000003 -0.000001 0.000001 1.943829 9.683969 -14.539825 -0.450133 -1.562114 -21.881448 0.000002 -0.000000 -0.000001 2.614481 14.900246 -31.347013 -0.570306 -2.706312 -32.011925 0.000002 0.000001 -0.000000 4.153431 18.471663 -34.980196 -0.701132 -5.791085 -39.372390 0.000004 -0.000005 -0.000000 0.000003 0.000000 0.000001 0.000003 0.000000 0.000001 0.000002 0.000000 0.000001 0.000000 -0.000001 -0.000003 0.000001 -0.000000 -0.000003 0.000000 -0.000001 -0.000003 0.000001 -0.000001 -0.000003 1.410957 9.461533 9.792731 1.220047 -24.270714 60.532927 -6.660686 41.858408 8.043834 6.225220 12.322335 11.673207 -8.897155 -4.896887 -0.412343 7.904741 -19.192470 -2.856905 0.000001 0.000000 0.000003 -1.079795 -1.177126 4.522161 0.134106 -1.118084 16.942409 0.000000 0.000002 0.000000 -0.663125 -2.903751 12.731578 -0.670549 1.811766 30.578962 0.000001 -0.000001 -0.000001 2.432280 -7.401795 21.764270 -0.995598 3.758469 37.431653 0.000003 -0.000001 0.000001 3.481001 -10.055066 24.322734 -1.451978 7.877587 41.091081 -0.000001 0.000002 0.000000 -0.000002 -0.000000 -0.000000 -0.000000 -0.000000 -0.000000 -0.000002 -0.000001 0.000001 -0.000002 -0.000001 -0.000000 -0.000002 0.000000 -0.000001 -0.000002 -0.000001 -0.000000 -0.000002 -0.000000 -0.000001 -0.000001 0.000001 -0.000001 -0.000001 0.000001 -0.000001 -0.000001 0.000001 -0.000001 -0.000001 0.000001 -0.000001 -0.000001 0.000001 -0.000001 -0.000001 0.000001 -0.000001 -0.000001 0.000001 -0.000001 0.000000 -0.000005 0.000000 0.000000 0.000002 0.000000 
-2.940136 87.839882 2.681013 -6.529484 -45.532776 -4.464242 0.000000 -0.000001 0.000000 -34.312944 2.750320 16.593909 38.794334 -14.734801 -0.118125 -1.925511 1.001554 -11.167074 -0.000000 0.000001 0.000000 -0.000000 0.000001 0.000001 1.273214 -13.751877 -18.263168 33.556832 -7.605729 -0.249537 -25.485198 -6.450224 21.280113 -0.000000 -0.000000 -0.000000 0.000002 0.000002 0.000000 5.832046 4.562146 -1.478725 11.801003 9.107551 -3.122063 11.801004 9.107545 -3.122067 -0.878794 -0.265349 0.051989 -0.878789 -0.265358 0.051991 0.000001 -0.000000 -0.000000 -0.878794 -0.265357 0.051991 -0.878795 -0.265363 0.051991 0.000001 0.000001 -0.000000 0.000001 -0.000000 0.000000 1.382014 -0.649831 -7.850395 -14.559187 2.098263 -63.224076 9.745351 -47.480340 5.840458 16.096625 0.896058 18.843013 9.480754 4.979321 -5.663209 -0.335159 0.032537 0.783748 0.000000 0.000000 -0.000004 -0.944194 -6.727961 -4.508822 0.002997 0.708402 -17.178225 -0.000002 -0.000001 0.000001 1.923878 9.607604 -15.158519 -0.477786 -1.640107 -22.645508 0.000002 -0.000001 0.000001 2.595604 14.870541 -31.752474 -0.584975 -2.729578 -32.335509 -0.000000 -0.000002 -0.000002 4.137586 18.450142 -35.422792 -0.709997 -5.792399 -39.604678 0.000002 -0.000005 -0.000000 0.000003 0.000000 -0.000001 0.000003 0.000000 -0.000001 0.000003 0.000000 -0.000001 0.000002 -0.000001 0.000000 0.000002 -0.000001 -0.000002 0.000002 -0.000001 0.000000 0.000002 -0.000000 -0.000000 1.459007 9.742949 9.349084 1.581886 -23.353079 60.204422 -5.807175 41.366986 8.647420 6.317644 12.526523 8.146652 -8.891602 -4.906155 -0.411613 7.904739 -19.192471 -2.856897 0.000001 -0.000001 0.000001 -1.096139 -1.088286 5.687083 0.127463 -1.096485 17.166063 0.000001 0.000000 0.000000 -0.679501 -2.833080 13.508739 -0.685447 1.843797 30.983391 -0.000001 -0.000002 -0.000001 2.387922 -7.289123 22.639632 -1.011241 3.778876 37.696480 -0.000001 0.000004 0.000005 3.405603 -9.920151 25.764310 -1.412417 7.831388 40.299356 0.000002 0.000005 0.000001 0.000002 0.000000 -0.000000 0.000002 -0.000001 0.000001 0.000002 0.000000 -0.000000 -0.000002 -0.000003 -0.000002 -0.000001 -0.000002 -0.000001 -0.000002 -0.000003 -0.000002 -0.000001 -0.000002 -0.000003 -0.000000 0.000002 -0.000001 -0.000000 0.000002 -0.000001 -0.000000 0.000002 -0.000001 -0.000000 0.000002 -0.000001 -0.000000 0.000002 -0.000001 -0.000000 0.000002 -0.000001 -0.000000 0.000002 -0.000001 0.000000 0.000001 -0.000000 0.000000 -0.000001 0.000000 
-2.969522 87.858429 2.649234 -6.714077 -45.620439 -4.751726 -0.000000 -0.000003 -0.000000 -34.224582 2.654001 16.816018 38.945800 -14.712005 -0.117638 -2.042899 1.021734 -11.215987 -0.000000 -0.000001 -0.000000 -0.000000 -0.000001 -0.000000 1.442727 -13.834702 -18.086932 33.384185 -7.468220 -0.244088 -25.407448 -6.398061 21.163384 0.000000 0.000002 -0.000000 0.000001 0.000002 0.000000 5.810076 4.607893 -1.514674 11.760307 9.195406 -3.186069 11.760295 9.195418 -3.186068 -0.897492 -0.291009 0.083844 -0.897493 -0.291009 0.083846 0.000000 -0.000000 -0.000001 -0.897493 -0.290993 0.083840 -0.897472 -0.291026 0.083846 -0.000000 0.000001 -0.000000 0.000000 -0.000000 0.000000 1.470232 -0.177693 -8.536244 -15.221148 1.042966 -62.340762 9.536300 -47.174522 4.978790 15.612655 0.818266 19.021727 9.811925 5.150548 -5.837508 -0.335158 0.032538 0.783750 0.000002 -0.000002 -0.000003 -0.981047 -6.463391 -5.240986 -0.025252 0.616109 -17.973622 0.000001 -0.000003 0.000001 1.902713 9.528946 -15.805864 -0.512314 -1.720316 -23.444915 -0.000002 -0.000000 -0.000000 2.575625 14.839612 -32.176622 -0.598579 -2.746286 -32.674590 0.000001 0.000001 -0.000000 4.121209 18.428118 -35.885886 -0.713409 -5.796281 -39.847119 0.000002 -0.000002 -0.000001 -0.000002 0.000001 -0.000001 -0.000002 0.000001 -0.000001 -0.000003 0.000001 -0.000001 0.000000 -0.000002 -0.000002 0.000001 0.000000 -0.000002 0.000000 -0.000002 -0.000002 0.000001 -0.000002 -0.000002 1.518066 10.111893 8.934072 1.572621 -22.143859 59.559830 -4.266257 41.033178 8.874437 6.914113 13.047342 5.304937 -8.881532 -4.934757 -0.419821 7.904740 -19.192468 -2.856902 0.000000 -0.000001 0.000001 -1.111283 -0.994026 6.925357 0.120720 -1.074407 17.395010 0.000001 0.000001 0.000001 -0.697228 -2.759700 14.320736 -0.701990 1.878861 31.428262 0.000001 0.000001 0.000002 2.341871 -7.168809 23.560022 -1.026346 3.798696 37.984755 -0.000000 -0.000001 -0.000003 3.321761 -9.776920 27.307076 -1.369441 7.779705 39.424791 0.000002 0.000003 -0.000002 0.000001 0.000001 -0.000002 0.000001 0.000001 -0.000002 0.000001 0.000001 -0.000002 -0.000000 0.000001 -0.000001 -0.000000 0.000002 -0.000001 -0.000000 0.000001 -0.000001 -0.000000 0.000002 -0.000003 0.000001 -0.000002 0.000001 0.000001 -0.000002 0.000001 0.000001 -0.000002 0.000001 0.000001 -0.000002 0.000001 0.000001 -0.000002 0.000001 0.000001 -0.000002 0.000001 0.000001 -0.000002 0.000001 0.000000 0.000000 0.000000 -0.000000 -0.000003 -0.000000 
-2.995511 87.877754 2.616363 -6.899048 -45.719790 -5.035642 -0.000000 -0.000001 -0.000000 -34.127638 2.561629 17.034502 39.087571 -14.675701 -0.114940 -2.158008 1.037751 -11.270194 -0.000000 0.000003 0.000000 -0.000000 0.000004 0.000001 1.594819 -13.909768 -17.923146 33.223655 -7.320183 -0.237922 -25.328882 -6.345399 21.044844 0.000000 -0.000000 -0.000000 0.000001 0.000001 -0.000001 5.786903 4.657142 -1.553565 11.717693 9.289986 -3.256971 11.717693 9.290002 -3.256978 -0.895125 -0.309776 0.117037 -0.895159 -0.309775 0.117037 -0.000000 0.000001 -0.000000 -0.895210 -0.309778 0.117037 -0.894975 -0.309780 0.117039 0.000001 0.000001 0.000000 -0.000000 0.000001 -0.000001 1.499359 0.026324 -8.695674 -15.549778 0.555681 -62.091269 9.465858 -46.877893 4.587001 15.476652 0.926632 19.320952 10.155762 5.326773 -6.021467 -0.335156 0.032536 0.783748 0.000005 -0.000002 -0.000003 -1.011408 -6.188534 -6.001696 -0.054429 0.520065 -18.800700 -0.000005 0.000001 -0.000001 1.880389 9.448594 -16.479064 -0.549236 -1.803224 -24.276184 0.000001 -0.000001 0.000000 2.554585 14.807580 -32.617589 -0.610343 -2.764207 -33.027110 0.000001 0.000003 -0.000001 4.104218 18.405820 -36.367482 -0.717023 -5.800386 -40.099231 0.000002 -0.000007 -0.000002 0.000002 0.000001 -0.000001 0.000002 0.000001 -0.000001 0.000001 0.000001 -0.000001 0.000002 -0.000002 -0.000003 0.000002 -0.000002 -0.000003 0.000002 -0.000002 -0.000003 0.000000 -0.000001 -0.000003 1.586999 10.369592 8.301714 0.640873 -20.082783 58.712409 -2.584644 40.665874 9.113708 7.625297 13.605371 2.257761 -8.866058 -4.978421 -0.432164 7.904741 -19.192471 -2.856902 0.000001 -0.000003 -0.000001 -1.125351 -0.895441 8.225628 0.113926 -1.052002 17.627890 0.000000 0.000000 0.000000 -0.716185 -2.684481 15.162137 -0.722222 1.915972 31.907212 0.000002 0.000001 0.000002 2.294715 -7.042394 24.518762 -1.042646 3.819704 38.292697 -0.000001 0.000001 0.000000 3.230138 -9.627277 28.935919 -1.323771 7.723013 38.479814 -0.000002 0.000005 0.000001 0.000002 0.000000 0.000000 0.000000 -0.000000 0.000002 0.000002 0.000000 0.000000 -0.000002 0.000001 -0.000001 -0.000002 0.000002 -0.000002 -0.000002 0.000001 -0.000001 -0.000002 0.000002 -0.000002 0.000002 -0.000001 -0.000000 0.000002 -0.000001 -0.000000 0.000002 -0.000001 -0.000000 0.000002 -0.000001 -0.000000 0.000002 -0.000001 -0.000000 0.000002 -0.000001 -0.000000 0.000002 -0.000001 -0.000000 -0.000000 0.000002 -0.000000 -0.000000 -0.000001 -0.000000 
